#!OML:ASF H:\Terrain\Patient Classification 1\Animal2\Wednesday\Animal2.ASF
:FULLY-SPECIFIED
:DEGREES
5040
root 25.2773 17.0848 -12.3151 0.910938 -4.7669 -4.09672
lowerback 9.25155 -2.05237 1.72674
upperback 5.90405 -2.60469 0.0621031
thorax 0.867202 -1.26528 -0.686858
lowerneck 4.97176 2.23168 12.9769
upperneck -5.32581 2.72524 -21.572
head -1.85869 1.76625 -9.01317
rclavicle 9.54166e-015 7.95139e-015
rhumerus -20.4445 17.3694 -92.6695
rradius 132.965
rwrist 4.66713
rhand -32.8103 13.0504
rfingers 7.12502
rthumb -6.03111 -16.8438
lclavicle 9.54166e-015 7.95139e-015
lhumerus -20.0781 -6.04552 79.5801
lradius 142.127
lwrist 56.8783
lhand -33.2041 40.3374
lfingers 7.12502
lthumb -6.41128 -289.78
rfemur -7.61081 10.9769 10.8943
rtibia 28.6221
rfoot -24.5952 -4.96206
rtoes -23.7415
lfemur -17.801 -4.30664 -5.66454
ltibia 42.019
lfoot -25.4135 0.316974
ltoes -39.4219
5041
root 25.27 17.0864 -12.331 0.891648 -4.67936 -3.93946
lowerback 9.30655 -1.99564 1.58786
upperback 5.99286 -2.53946 0.0644608
thorax 0.936904 -1.23542 -0.612413
lowerneck 5.51859 2.46507 13.1965
upperneck -4.50946 3.22252 -21.8337
head -1.62615 2.0235 -9.14247
rclavicle 3.47873e-014 7.55382e-015
rhumerus -20.2659 17.1733 -92.4907
rradius 133.003
rwrist 4.74535
rhand -31.7872 13.0283
rfingers 7.12502
rthumb -5.04326 -16.8917
lclavicle 3.47873e-014 7.55382e-015
lhumerus -19.8763 -6.12196 79.6623
lradius 141.874
lwrist 55.887
lhand -31.9891 40.2198
lfingers 7.12502
lthumb -5.23817 -289.865
rfemur -7.7388 10.9131 10.7365
rtibia 28.8217
rfoot -24.7597 -4.93308
rtoes -23.4142
lfemur -17.8639 -4.35781 -5.80943
ltibia 41.9531
lfoot -25.2177 0.551669
ltoes -40.0508
5042
root 25.2621 17.0887 -12.3493 0.867179 -4.5727 -3.74127
lowerback 9.42468 -1.92921 1.45176
upperback 6.05696 -2.45963 0.0147556
thorax 0.944057 -1.19787 -0.591601
lowerneck 5.99229 2.6487 13.4455
upperneck -3.51216 3.68148 -21.9787
head -1.33749 2.24969 -9.23234
rclavicle 2.52457e-014 -2.0276e-014
rhumerus -20.1552 16.8373 -92.3421
rradius 133.079
rwrist 4.6206
rhand -30.546 13.3918
rfingers 7.12502
rthumb -3.84476 -16.5533
lclavicle 2.52457e-014 -2.0276e-014
lhumerus -19.8032 -6.26581 79.6558
lradius 141.785
lwrist 54.8971
lhand -30.7957 40.3389
lfingers 7.12502
lthumb -4.0859 -289.721
rfemur -7.86089 10.8203 10.5382
rtibia 29.0059
rfoot -24.8824 -4.93029
rtoes -23.3326
lfemur -17.9352 -4.37419 -5.99304
ltibia 41.8885
lfoot -25.0725 0.662523
ltoes -40.4591
5043
root 25.2532 17.0852 -12.3717 0.871994 -4.50517 -3.70689
lowerback 9.53738 -1.8601 1.47777
upperback 6.16147 -2.36495 -0.00947473
thorax 0.991495 -1.1486 -0.637656
lowerneck 6.26771 2.90896 13.655
upperneck -2.32362 4.25946 -21.9637
head -0.941096 2.51682 -9.25192
rclavicle -1.21259e-014 5.1684e-015
rhumerus -19.9721 16.5636 -92.2434
rradius 133.323
rwrist 4.22582
rhand -28.6119 13.0618
rfingers 7.12502
rthumb -1.97684 -16.9088
lclavicle -1.21259e-014 5.1684e-015
lhumerus -19.655 -6.37278 79.5841
lradius 141.73
lwrist 54.2847
lhand -29.9372 40.5889
lfingers 7.12502
lthumb -3.25681 -289.456
rfemur -7.97116 10.829 10.5221
rtibia 29.1311
rfoot -24.8328 -4.94433
rtoes -23.2467
lfemur -18.0509 -4.30385 -5.96876
ltibia 41.8381
lfoot -24.9817 0.52921
ltoes -40.4591
5044
root 25.2455 17.0823 -12.3926 0.836721 -4.40935 -3.82214
lowerback 9.54999 -1.86478 1.66248
upperback 6.35907 -2.35934 0.00919526
thorax 1.18496 -1.13872 -0.725884
lowerneck 6.76016 3.21852 13.6377
upperneck -1.33635 4.87778 -21.7787
head -0.639939 2.81999 -9.18148
rclavicle -3.16068e-014 3.97569e-015
rhumerus -19.7153 16.4766 -92.1578
rradius 132.985
rwrist 4.98043
rhand -28.3967 13.883
rfingers 7.12502
rthumb -1.76908 -16.0895
lclavicle -3.16068e-014 3.97569e-015
lhumerus -19.5496 -6.37595 79.4863
lradius 141.655
lwrist 53.6332
lhand -29.2169 40.755
lfingers 7.12502
lthumb -2.56116 -289.281
rfemur -7.99978 10.7754 10.6905
rtibia 29.203
rfoot -24.6896 -5.19521
rtoes -24.2643
lfemur -18.1173 -4.27983 -5.7835
ltibia 41.7901
lfoot -24.899 0.101649
ltoes -39.4529
5045
root 25.2397 17.088 -12.4094 0.755847 -4.26134 -3.89178
lowerback 9.6055 -1.92717 1.81715
upperback 6.49167 -2.43075 0.0338209
thorax 1.28679 -1.16887 -0.781783
lowerneck 7.28454 3.51914 13.625
upperneck -0.223037 5.49933 -21.6192
head -0.308104 3.12348 -9.12109
rclavicle 8.15017e-015 1.23246e-014
rhumerus -19.5447 16.5671 -92.1164
rradius 132.993
rwrist 5.0125
rhand -26.9199 13.0439
rfingers 7.12502
rthumb -0.342735 -16.9356
lclavicle 8.15017e-015 1.23246e-014
lhumerus -19.7469 -6.37567 79.5183
lradius 141.61
lwrist 52.6664
lhand -28.395 40.2907
lfingers 7.12502
lthumb -1.7674 -289.737
rfemur -7.97195 10.6669 10.8416
rtibia 29.1989
rfoot -24.5023 -5.66106
rtoes -25.6684
lfemur -18.1229 -4.39413 -5.67558
ltibia 41.7368
lfoot -24.844 -0.280276
ltoes -38.6032
5046
root 25.2339 17.0943 -12.424 0.722988 -4.15132 -3.92608
lowerback 9.57629 -1.95408 1.92446
upperback 6.65574 -2.46148 0.0716167
thorax 1.47113 -1.17926 -0.804721
lowerneck 7.31481 3.82246 13.8777
upperneck 1.25909 6.15168 -21.6749
head 0.232289 3.41049 -9.16296
rclavicle -5.1684e-015 -2.8625e-014
rhumerus -19.2852 16.682 -92.0169
rradius 132.902
rwrist 5.50434
rhand -26.4268 12.584
rfingers 7.12502
rthumb 0.133503 -17.3957
lclavicle -5.1684e-015 -2.8625e-014
lhumerus -19.7307 -6.28271 79.5711
lradius 141.495
lwrist 51.8749
lhand -27.3482 39.6188
lfingers 7.12502
lthumb -0.756388 -290.403
rfemur -7.90286 10.65 10.9273
rtibia 29.1148
rfoot -24.3829 -5.76463
rtoes -25.7081
lfemur -18.1306 -4.4762 -5.61386
ltibia 41.6425
lfoot -24.7518 -0.194582
ltoes -39.327
5047
root 25.2281 17.096 -12.4379 0.697915 -4.04667 -3.97067
lowerback 9.49483 -1.92718 2.0549
upperback 6.89797 -2.42244 0.113953
thorax 1.7674 -1.15228 -0.845118
lowerneck 7.21615 4.1264 14.1708
upperneck 2.80034 6.80335 -21.6738
head 0.813828 3.68994 -9.18884
rclavicle 4.41302e-014 -2.46493e-014
rhumerus -18.8686 16.531 -91.7256
rradius 132.876
rwrist 5.61646
rhand -25.0713 12.3473
rfingers 7.12502
rthumb 1.44267 -17.6276
lclavicle 4.41302e-014 -2.46493e-014
lhumerus -19.5046 -6.25022 79.545
lradius 141.432
lwrist 51.1429
lhand -26.0727 39.7211
lfingers 7.12502
lthumb 0.475563 -290.3
rfemur -7.73239 10.6421 10.9882
rtibia 28.995
rfoot -24.3668 -5.59632
rtoes -25.3903
lfemur -18.105 -4.56207 -5.53821
ltibia 41.4884
lfoot -24.6064 -0.206176
ltoes -39.4979
5048
root 25.2227 17.1044 -12.4492 0.687355 -3.93333 -3.93273
lowerback 9.50042 -1.87796 2.10026
upperback 7.0299 -2.35603 0.153163
thorax 1.90472 -1.11613 -0.837838
lowerneck 7.19257 4.37305 14.3632
upperneck 4.60413 7.4062 -21.5566
head 1.44267 3.94224 -9.16171
rclavicle 5.96354e-016 -7.95139e-015
rhumerus -18.5639 16.2152 -91.3748
rradius 132.911
rwrist 5.22722
rhand -22.1638 11.868
rfingers 7.12502
rthumb 4.25062 -18.0694
lclavicle 5.96354e-016 -7.95139e-015
lhumerus -19.3903 -6.25868 79.5382
lradius 141.292
lwrist 49.8049
lhand -24.1198 40.2071
lfingers 7.12502
lthumb 2.36163 -289.826
rfemur -7.65163 10.6046 10.9777
rtibia 28.8859
rfoot -24.4097 -5.48995
rtoes -24.7793
lfemur -18.0757 -4.70845 -5.55985
ltibia 41.2963
lfoot -24.551 -0.502776
ltoes -38.6092
5049
root 25.2176 17.1171 -12.4547 0.720111 -3.86654 -3.6678
lowerback 9.33867 -1.81223 1.923
upperback 7.19487 -2.28756 0.11328
thorax 2.17263 -1.08386 -0.793881
lowerneck 7.11907 4.57186 14.4889
upperneck 6.47398 7.93409 -21.3631
head 2.08322 4.15383 -9.10131
rclavicle 7.53394e-014 -3.1408e-014
rhumerus -18.2761 15.9768 -91.0932
rradius 132.911
rwrist 5.18321
rhand -19.9451 11.2356
rfingers 7.12502
rthumb 6.39286 -18.6479
lclavicle 7.53394e-014 -3.1408e-014
lhumerus -19.2278 -6.11458 79.4384
lradius 140.936
lwrist 48.1243
lhand -21.5049 39.6513
lfingers 7.12502
lthumb 4.88682 -290.425
rfemur -7.73867 10.4965 10.7126
rtibia 28.8076
rfoot -24.3911 -5.61423
rtoes -24.5402
lfemur -18.0648 -4.82463 -5.86608
ltibia 41.1227
lfoot -24.5445 -0.246617
ltoes -39.1858
